# xmcd
#
# Track frame offsets: 
#        150
#        5671
#        8886
#        22825
#        34459
#        52703
#        59500
#        69024
#        80485
#        92153
#        104535
#        116586
#        127208
#        134020
#        147903
#        163691
#        176985
#        189444
#        204424
#        216547
#        229447
#        241560
#        259527
#        268668
#        272840
#        273326
#
# Disc length: 3649 seconds
#
# Revision: 0
# Processed by: cddbd v1.5.2PL0 Copyright (c) Steve Scherf et al.
# Submitted via: ExactAudioCopy v1.0b3
#
DISCID=810e3f1a
DTITLE=M.A. Numminen - Ur M.A. Numminens Hatt (1971-2008) [CD 2)
DYEAR=2014
DGENRE=Humour
TTITLE0=Wovon man nicht sprechen kann
TTITLE1=Haren satt i gropen i Finland
TTITLE2=Pogo i Togo
TTITLE3=Milda Matilda, dom tänderna
TTITLE4=Flaggorna fladdrade i gentlemännens WC
TTITLE5=Munborsten
TTITLE6=La donna e mobile
TTITLE7=Det är ett svineri
TTITLE8=Egon
TTITLE9=Midnattsmarodören
TTITLE10=Missförstå mig inte
TTITLE11=I en förälskad människa
TTITLE12=Att cykla är nödvändigt
TTITLE13=Jag vill vara fri
TTITLE14=Nån kom och stal min brud
TTITLE15=Rock är inte snuskhummerns musik
TTITLE16=Låga av elden
TTITLE17=Det gick som det var meningen att gå
TTITLE18=In Order to Tell
TTITLE19=A Proposition Is
TTITLE20=Anomi
TTITLE21=Karavan
TTITLE22=Route 66
TTITLE23=Dägä-dägä
TTITLE24=Nog finns det spöken
TTITLE25=Perfekt
EXTD=
EXTT0=
EXTT1=
EXTT2=
EXTT3=
EXTT4=
EXTT5=
EXTT6=
EXTT7=
EXTT8=
EXTT9=
EXTT10=
EXTT11=
EXTT12=
EXTT13=
EXTT14=
EXTT15=
EXTT16=
EXTT17=
EXTT18=
EXTT19=
EXTT20=
EXTT21=
EXTT22=
EXTT23=
EXTT24=
EXTT25=
PLAYORDER=
